# xmcd CD database file
#
# Track frame offsets:
#	150
#	19883
#	34338
#	52439
#	76895
#	104996
#	126570
#	149469
#	169807
#	192283
#	209312
#	229014
#	247091
#	266910
#	288197
#
# Disc length: 4056 seconds
#
# Revision: 2
# Processed by: cddbd v1.5.2PL0 Copyright (c) Steve Scherf et al.
# Submitted via: CDex 1.50
#
DISCID=f30fd60f
DTITLE=???? - CYCLE HIT 1991-1997 Spitz Complete Single Collection
DYEAR=2006
DGENRE=Blues
TTITLE0=???????
TTITLE1=????
TTITLE2=??????
TTITLE3=??????
TTITLE4=?????????
TTITLE5=?????
TTITLE6=??????????
TTITLE7=???????
TTITLE8=???
TTITLE9=?????
TTITLE10=?????
TTITLE11=??????
TTITLE12=????
TTITLE13=?
TTITLE14=??????
EXTD=YEAR: 2006
EXTT0=
EXTT1=
EXTT2=
EXTT3=
EXTT4=
EXTT5=
EXTT6=
EXTT7=
EXTT8=
EXTT9=
EXTT10=
EXTT11=
EXTT12=
EXTT13=
EXTT14=
PLAYORDER=
